<svg xmlns="http://www.w3.org/2000/svg" viewBox="17 52 175 175" fill="currentColor">
  <path d="M 79.060291 75.892008 C 77.713866 75.871264 76.106793 76.28309 75.162854 76.920886 C 74.3554 77.466466 67.605631 83.774523 60.028894 91.065243 C 58.378734 92.653103 54.430846 96.448356 51.255786 99.498836 C 48.080725 102.5493 44.183714 106.29911 42.59585 107.83166 C 41.007986 109.36422 38.45994 111.81998 36.933146 113.28921 C 24.421998 125.32869 24.496078 125.25326 23.031669 127.43253 C 20.679019 130.93364 19.63779 134.18241 19.455143 138.59051 C 19.254101 143.44257 20.241058 147.08303 22.838916 151.06882 C 23.938969 152.75659 26.194994 155.08689 39.240499 168.01248 C 47.55968 176.2552 57.564144 186.16919 61.472734 190.04421 C 65.381324 193.91921 69.146954 197.52884 69.840698 198.06543 C 72.284879 199.95591 76.277405 201.70916 79.551733 202.32925 C 82.234324 202.83729 87.576176 202.62959 90.135583 201.91791 C 94.111783 200.81228 97.436476 198.92688 100.51479 196.03145 C 101.63824 194.97475 113.61262 183.06738 127.12454 169.57053 C 154.85754 141.86847 152.97141 143.99184 152.96689 140.47825 C 152.96489 138.82467 152.87875 138.41117 152.27236 137.14667 C 151.89162 136.35274 151.23829 135.35363 150.82077 134.92613 C 150.40324 134.49863 142.42998 126.55378 133.10247 117.27088 C 123.77495 107.98798 115.74201 99.962228 115.25136 99.436308 L 114.35891 98.480294 L 117.00836 95.812756 C 119.91306 92.887536 120.84364 92.231217 122.6106 91.864677 C 124.68208 91.434967 126.35261 91.661083 128.2113 92.622253 C 128.60502 92.825853 131.64059 95.606748 134.95662 98.802238 C 140.43245 104.079 145.77609 109.21356 162.95698 125.70602 C 172.41701 134.78699 173.00063 135.39257 173.6447 136.7994 C 174.14488 137.89195 174.21227 138.29629 174.14028 139.7708 C 174.08008 141.00307 173.91037 141.76676 173.52946 142.51895 C 173.13661 143.29474 166.81962 149.70266 148.79092 167.61406 C 121.77154 194.45764 123.43302 192.61243 123.43898 195.77565 C 123.44298 197.79762 124.0066 199.20157 125.38666 200.62445 C 126.96982 202.25673 127.73606 202.54888 130.42821 202.54888 C 132.55176 202.54888 132.86513 202.49376 133.93756 201.92876 C 134.8352 201.45587 138.61039 197.83986 149.81618 186.71987 C 157.90173 178.69622 168.44918 168.23206 173.25506 163.46651 C 178.06095 158.70096 182.4378 154.35267 182.98108 153.80302 C 184.4569 152.30989 186.42152 149.26186 187.22681 147.21582 C 188.27567 144.55091 188.68578 141.83595 188.54715 138.4794 C 188.42584 135.54202 188.15118 134.24195 187.04853 131.38268 C 185.63543 127.71839 184.3978 126.26883 174.6219 116.83111 C 172.48438 114.76754 169.48656 111.8693 167.95977 110.39068 C 166.43297 108.91205 160.98613 103.66345 155.85612 98.72679 C 150.72609 93.79014 145.37984 88.641401 143.97519 87.285111 C 138.4033 81.905051 137.25511 80.944298 134.84448 79.645268 C 129.9409 77.002848 123.82947 76.28444 118.74004 77.75236 C 115.9137 78.56755 112.60438 80.220432 110.66301 81.786222 C 109.74694 82.525072 97.039312 95.058898 82.423393 109.63879 C 56.815952 135.18314 55.834499 136.19189 55.450879 137.36888 C 54.834206 139.26089 54.922725 141.60216 55.674121 143.27291 C 56.299298 144.66301 57.519804 145.88078 80.973869 168.50961 C 84.692321 172.09723 85.548115 172.56828 88.344478 172.56828 C 90.140604 172.56828 90.4626 172.50251 91.521029 171.91612 C 93.829095 170.6375 95.125445 168.63572 95.291341 166.0958 C 95.421002 164.11061 95.072098 162.6428 94.160661 161.34106 C 93.770972 160.78449 88.830099 155.79798 83.180969 150.26008 C 77.531832 144.72218 72.909762 140.07171 72.909762 139.92583 C 72.909762 139.58755 103.77267 108.90353 104.02621 108.98973 C 104.34456 109.09797 135.53591 140.33486 135.53591 140.54543 C 135.53591 140.65381 128.85031 147.45367 120.67894 155.65613 C 112.50758 163.85861 102.43917 173.98065 98.304594 178.14985 C 94.170008 182.31905 90.437514 185.98412 90.01001 186.29406 C 88.171159 187.62722 86.916982 188.06958 84.672351 188.17766 C 82.168908 188.29821 80.729069 187.96086 78.987427 186.84544 C 78.336068 186.42828 68.664979 176.97559 56.42808 164.79563 C 38.847788 147.29713 34.916323 143.27685 34.494019 142.36547 C 34.091098 141.49592 33.982679 140.88549 33.993274 139.55014 C 34.008954 137.57316 34.62118 136.07298 36.004004 134.62486 C 37.670324 132.87986 61.12356 110.16909 74.908606 96.951705 C 84.799881 87.467735 84.831458 87.435151 85.376184 86.207141 C 86.152232 84.457661 86.112514 81.723599 85.286267 80.041109 C 84.197584 77.824229 81.968048 76.206462 79.618396 75.928182 C 79.439378 75.906981 79.252637 75.894972 79.060291 75.892008 z"/>
</svg>
